<?xml version="1.0" standalone="no"?>
<!DOCTYPE svg PUBLIC "-//W3C//DTD SVG 20010904//EN"
 "http://www.w3.org/TR/2001/REC-SVG-20010904/DTD/svg10.dtd">
<svg version="1.0" xmlns="http://www.w3.org/2000/svg"
 width="1080.000000pt" height="1080.000000pt" viewBox="0 0 1080.000000 1080.000000"
 preserveAspectRatio="xMidYMid meet">
<metadata>
Created by potrace 1.16, written by Peter Selinger 2001-2019
</metadata>
<g transform="translate(0.000000,1080.000000) scale(0.100000,-0.100000)"
fill="#000000" stroke="none">
<path d="M0 5400 l0 -5400 5400 0 5400 0 0 5400 0 5400 -5400 0 -5400 0 0
-5400z m7029 1376 c29 -16 51 -53 51 -90 0 -12 -76 -153 -168 -312 -93 -159
-285 -489 -427 -734 -142 -245 -361 -623 -488 -840 -126 -217 -273 -469 -325
-560 -53 -91 -107 -177 -121 -192 l-25 -28 -1243 0 c-1117 0 -1246 2 -1268 16
-27 18 -49 74 -40 103 3 11 91 167 194 348 103 180 412 720 686 1198 634 1107
605 1058 618 1074 6 7 20 17 32 21 11 5 577 9 1258 9 1053 1 1242 -1 1266 -13z
m757 -1404 c27 -21 44 -54 44 -83 0 -12 -154 -296 -342 -631 -263 -467 -349
-613 -370 -624 -22 -12 -124 -14 -573 -14 -481 0 -549 2 -570 16 -27 18 -49
74 -40 103 3 11 119 223 256 473 138 249 285 515 327 592 43 76 88 149 101
162 l24 24 561 0 c516 0 563 -2 582 -18z"/>
</g>
</svg>
